<?xml version="1.0" encoding="UTF-8"?>
<svg id="_图层_1" data-name="图层 1" xmlns="http://www.w3.org/2000/svg" viewBox="0 0 1078.47 233.06">
  <defs>
    <style>
      .cls-1 {
        fill: #231815;
        stroke-width: 0px;
      }
    </style>
  </defs>
  <path class="cls-1" d="m302.91,47.09c-6.91-5.94-17.93-8.91-33.05-8.91h-93.19c-1.09,0-1.64,1.32-.86,2.09l10.12,10.12c.38.38.9.6,1.44.6h20.45c1.13,0,2.04.91,2.04,2.04v10.68c0,1.13-.91,2.04-2.04,2.04h-10.73c-1.13,0-2.04.91-2.04,2.04v8.73c0,1.13.91,2.04,2.04,2.04h10.73c1.13,0,2.04.91,2.04,2.04v70.33c0,1.09,1.31,1.63,2.09.87l11.88-11.83c.38-.38.6-.9.6-1.44l.02-57.92c0-1.13.91-2.04,2.04-2.04h10.73c1.13,0,2.04.91,2.04,2.04v85.39c0,.54.21,1.06.6,1.44l11.92,11.92c.77.77,2.09.22,2.09-.86v-67.62c0-1.13.91-2.04,2.04-2.04h11.24c11.54,0,20.7-1.73,27.45-5.18,6.75-3.47,11.57-7.97,14.42-13.55,2.86-5.56,4.3-11.52,4.3-17.89,0-10.8-3.47-19.17-10.37-25.11Zm-78.48,16.61v-10.68c0-1.13.91-2.04,2.04-2.04h10.73c1.13,0,2.04.91,2.04,2.04v10.68c0,1.13-.91,2.04-2.04,2.04h-10.73c-1.13,0-2.04-.91-2.04-2.04Zm65.68,27.28c-5.4,3.56-13.61,5.36-24.62,5.36h-9.62c-1.13,0-2.04-.91-2.04-2.04v-13.72c0-1.13.91-2.04,2.04-2.04h6.37c3.54,0,6.4-2.87,6.4-6.4h0c0-3.54-2.87-6.4-6.4-6.4h-6.32c-1.13,0-2.04-.91-2.04-2.04v-10.68c0-1.13.91-2.04,2.04-2.04h12.7c10.26,0,17.71,1.51,22.46,5.18,4.75,3.67,7.13,9.23,7.13,16.7,0,8.53-2.7,14.58-8.1,18.14Z"/>
  <g>
    <path class="cls-1" d="m270.01,137.78v-10.27h36.63v10.27h-36.63Zm12.59,41.55v-43.17h11.5v43.17h-11.5Z"/>
    <path class="cls-1" d="m311.21,179.33v-54.14h11.11v19.79h2.04l-3.76,3.9c.42-1.78,1.27-3.26,2.55-4.43s2.79-2.05,4.54-2.64,3.57-.88,5.47-.88c2.79,0,5.13.58,7.03,1.74s3.33,2.76,4.31,4.8,1.46,4.39,1.46,7.07v24.79h-11.11v-22.36c0-2.3-.54-4.01-1.63-5.13s-2.55-1.69-4.38-1.69c-1.22,0-2.31.26-3.29.79s-1.75,1.3-2.34,2.32-.88,2.29-.88,3.81v22.25h-11.11Z"/>
    <path class="cls-1" d="m370.7,179.9c-4.08,0-7.62-.83-10.62-2.48s-5.32-3.94-6.96-6.86-2.46-6.26-2.46-10.04c0-3.98.86-7.44,2.57-10.35s3.98-5.18,6.82-6.79,5.94-2.41,9.32-2.41,6.21.75,8.84,2.25,4.73,3.57,6.28,6.22,2.32,5.73,2.32,9.25c0,.94-.05,1.86-.16,2.78s-.24,1.76-.4,2.53h-27.07v-6.96h17.4c0-1.52-.32-2.84-.95-3.96s-1.5-1.96-2.6-2.55-2.37-.88-3.8-.88c-1.9,0-3.52.46-4.85,1.39s-2.36,2.19-3.08,3.78-1.07,3.38-1.07,5.34c0,2.18.43,4.09,1.3,5.73s2.08,2.91,3.64,3.81,3.36,1.35,5.4,1.35c1.15,0,2.31-.13,3.48-.39s2.25-.59,3.23-1,1.77-.85,2.36-1.32l3.45,8.3c-1.43.94-3.23,1.71-5.4,2.32s-4.49.91-6.98.91Z"/>
    <path class="cls-1" d="m410.11,137.78v-10.27h36.63v10.27h-36.63Zm12.59,41.55v-43.17h11.5v43.17h-11.5Z"/>
    <path class="cls-1" d="m463.75,179.9c-4.08,0-7.62-.83-10.62-2.48s-5.32-3.94-6.96-6.86-2.46-6.26-2.46-10.04c0-3.98.86-7.44,2.57-10.35s3.98-5.18,6.82-6.79,5.94-2.41,9.32-2.41,6.21.75,8.84,2.25,4.73,3.57,6.28,6.22,2.32,5.73,2.32,9.25c0,.94-.05,1.86-.16,2.78s-.24,1.76-.4,2.53h-27.07v-6.96h17.4c0-1.52-.32-2.84-.95-3.96s-1.5-1.96-2.6-2.55-2.37-.88-3.8-.88c-1.9,0-3.52.46-4.85,1.39s-2.36,2.19-3.08,3.78-1.07,3.38-1.07,5.34c0,2.18.43,4.09,1.3,5.73s2.08,2.91,3.64,3.81,3.36,1.35,5.4,1.35c1.15,0,2.31-.13,3.48-.39s2.25-.59,3.23-1,1.77-.85,2.36-1.32l3.45,8.3c-1.43.94-3.23,1.71-5.4,2.32s-4.49.91-6.98.91Z"/>
    <path class="cls-1" d="m485.16,179.33v-37.83h10.58v4.82h1.51l-3.55,4.15c1.24-3.09,2.92-5.46,5.03-7.08s4.61-2.44,7.49-2.44c2.39,0,4.42.58,6.1,1.74s2.95,2.83,3.81,5.01l-1.55-1.48h2l-1.97,1.48c1.36-2.25,3.15-3.94,5.38-5.06s4.65-1.69,7.28-1.69,4.57.44,6.19,1.32,2.88,2.03,3.8,3.45,1.56,2.96,1.93,4.64.56,3.3.56,4.87v24.12h-11.18v-22.75c0-2.06-.43-3.65-1.28-4.76s-2.1-1.67-3.74-1.67c-1.08,0-2.03.24-2.87.72s-1.49,1.2-1.97,2.16-.72,2.14-.72,3.55v22.75h-11.11v-22.75c0-2.06-.43-3.65-1.3-4.76s-2.12-1.67-3.76-1.67-2.92.54-3.97,1.63-1.58,2.71-1.58,4.87v22.68h-11.11Z"/>
    <path class="cls-1" d="m546.69,194.1v-52.59h10.55v3.76h1.44l-1.79,4.04v22.15l2.64,4.29h-1.72v18.35h-11.11Zm21.73-14.2c-3.19,0-6.05-.9-8.58-2.69s-4.54-4.19-6.01-7.19-2.23-6.32-2.25-9.95c.02-3.54.74-6.76,2.14-9.65s3.35-5.21,5.82-6.94,5.33-2.6,8.56-2.6c2.84,0,5.55.74,8.14,2.21s4.69,3.67,6.31,6.57,2.4,6.53,2.36,10.86c.02,3.28-.43,6.13-1.37,8.56s-2.2,4.44-3.8,6.03-3.38,2.79-5.34,3.59-3.96,1.2-5.98,1.2Zm-2.6-9.28c1.64-.02,3.08-.46,4.32-1.3s2.21-2.04,2.92-3.59,1.04-3.35,1.02-5.41c.02-2.11-.32-3.92-1.04-5.43s-1.72-2.67-3.01-3.48-2.77-1.2-4.43-1.18c-1.57-.02-2.98.36-4.22,1.16s-2.23,1.95-2.95,3.46-1.09,3.33-1.09,5.47.37,3.87,1.11,5.41,1.74,2.74,3.01,3.59,2.72,1.28,4.36,1.3Z"/>
    <path class="cls-1" d="m600.27,179.9c-2.2,0-4.05-.49-5.54-1.46s-2.61-2.26-3.36-3.85-1.12-3.35-1.12-5.27v-44.12h11.11v42.43c0,.61.08,1.13.25,1.56s.42.77.77,1.02.84.37,1.48.37c.38,0,.69-.04.93-.11l.62-.18v8.72c-.68.26-1.47.47-2.37.63s-1.82.25-2.76.25Z"/>
    <path class="cls-1" d="m628.25,179.9c-4.08,0-7.62-.83-10.62-2.48s-5.32-3.94-6.96-6.86-2.46-6.26-2.46-10.04c0-3.98.86-7.44,2.57-10.35s3.98-5.18,6.82-6.79,5.94-2.41,9.32-2.41,6.21.75,8.84,2.25,4.73,3.57,6.28,6.22,2.32,5.73,2.32,9.25c0,.94-.05,1.86-.16,2.78s-.24,1.76-.4,2.53h-27.07v-6.96h17.4c0-1.52-.32-2.84-.95-3.96s-1.5-1.96-2.6-2.55-2.37-.88-3.8-.88c-1.9,0-3.52.46-4.85,1.39s-2.36,2.19-3.08,3.78-1.07,3.38-1.07,5.34c0,2.18.43,4.09,1.3,5.73s2.08,2.91,3.64,3.81,3.36,1.35,5.4,1.35c1.15,0,2.31-.13,3.48-.39s2.25-.59,3.23-1,1.77-.85,2.36-1.32l3.45,8.3c-1.43.94-3.23,1.71-5.4,2.32s-4.49.91-6.98.91Z"/>
    <path class="cls-1" d="m671,179.33v-51.82h11.53v51.82h-11.53Zm9.21-16.88v-10.16h8.16c1.64,0,3.06-.32,4.27-.95s2.14-1.51,2.79-2.62.98-2.37.98-3.78c0-2.2-.76-3.95-2.29-5.24s-3.59-1.93-6.19-1.93h-7.73v-10.27h8.44c3.96,0,7.37.7,10.21,2.11s5.03,3.39,6.56,5.94,2.29,5.57,2.29,9.04-.79,6.65-2.36,9.33-3.76,4.78-6.57,6.28-6.08,2.25-9.81,2.25h-8.75Z"/>
    <path class="cls-1" d="m712.8,179.33v-37.83h10.79v5.31h1.09l-2.53,2.67c.56-1.17,1.42-2.41,2.57-3.73s2.6-2.44,4.34-3.39,3.8-1.42,6.17-1.42c.98,0,1.86.08,2.62.25s1.32.34,1.67.53l-4.46,10.62c-.23-.12-.65-.25-1.25-.39s-1.26-.21-1.99-.21c-.89,0-1.8.16-2.72.47s-1.78.81-2.57,1.49-1.42,1.53-1.9,2.55-.72,2.23-.72,3.64v19.44h-11.11Z"/>
    <path class="cls-1" d="m758.89,179.9c-3.63,0-6.94-.83-9.93-2.5s-5.37-3.96-7.14-6.89-2.65-6.3-2.65-10.12.88-7.2,2.65-10.12,4.15-5.21,7.14-6.86,6.3-2.46,9.93-2.46,7.04.82,10.02,2.46,5.34,3.93,7.08,6.86,2.62,6.3,2.62,10.12-.87,7.2-2.62,10.12-4.11,5.23-7.1,6.89-6.32,2.5-10,2.5Zm0-9.49c1.73,0,3.29-.42,4.68-1.27s2.47-2.02,3.27-3.52,1.2-3.25,1.2-5.24-.39-3.63-1.16-5.13-1.84-2.68-3.2-3.53-2.93-1.28-4.71-1.28-3.33.42-4.73,1.25-2.49,2-3.29,3.5-1.2,3.23-1.2,5.2.4,3.74,1.21,5.24,1.9,2.67,3.29,3.52,2.93,1.27,4.64,1.27Z"/>
    <path class="cls-1" d="m782.06,194.87c-.8,0-1.65-.05-2.55-.14s-1.74-.22-2.51-.39v-9.95c.54.21,1.12.36,1.74.46s1.17.14,1.63.14c1.52,0,2.61-.36,3.25-1.09s.97-1.66.97-2.81v-39.59h11.11v39.06c0,2.74-.49,5.19-1.46,7.35s-2.47,3.86-4.5,5.1-4.59,1.86-7.68,1.86Zm8.05-57.69c-1.9,0-3.5-.66-4.82-1.97s-1.97-2.91-1.97-4.78.66-3.53,1.97-4.83,2.92-1.95,4.82-1.95,3.5.65,4.8,1.95,1.95,2.91,1.95,4.83-.65,3.47-1.95,4.78-2.9,1.97-4.8,1.97Z"/>
    <path class="cls-1" d="m821.22,179.9c-4.08,0-7.62-.83-10.62-2.48s-5.32-3.94-6.96-6.86-2.46-6.26-2.46-10.04c0-3.98.86-7.44,2.57-10.35s3.98-5.18,6.82-6.79,5.94-2.41,9.32-2.41,6.21.75,8.84,2.25,4.73,3.57,6.28,6.22,2.32,5.73,2.32,9.25c0,.94-.05,1.86-.16,2.78s-.24,1.76-.4,2.53h-27.07v-6.96h17.4c0-1.52-.32-2.84-.95-3.96s-1.5-1.96-2.6-2.55-2.37-.88-3.8-.88c-1.9,0-3.52.46-4.85,1.39s-2.36,2.19-3.08,3.78-1.07,3.38-1.07,5.34c0,2.18.43,4.09,1.3,5.73s2.08,2.91,3.64,3.81,3.36,1.35,5.4,1.35c1.15,0,2.31-.13,3.48-.39s2.25-.59,3.23-1,1.77-.85,2.36-1.32l3.45,8.3c-1.43.94-3.23,1.71-5.4,2.32s-4.49.91-6.98.91Z"/>
    <path class="cls-1" d="m861.86,179.76c-2.79,0-5.41-.5-7.88-1.49s-4.63-2.37-6.5-4.13-3.34-3.82-4.39-6.19-1.58-4.92-1.58-7.66.52-5.25,1.55-7.59,2.47-4.39,4.31-6.15,3.97-3.13,6.38-4.11,4.99-1.48,7.73-1.48c2.16,0,4.24.3,6.26.91s3.83,1.46,5.45,2.57l-4.08,8.93c-.66-.59-1.37-1.09-2.13-1.51s-1.58-.74-2.46-.97-1.8-.33-2.76-.33c-2.02,0-3.74.45-5.19,1.34s-2.55,2.07-3.32,3.53-1.16,3.08-1.16,4.83c0,1.85.42,3.53,1.25,5.03s1.97,2.69,3.41,3.57,3.09,1.32,4.94,1.32c1.55,0,3.02-.27,4.43-.81s2.45-1.12,3.13-1.76l3.97,9.11c-1.34.82-2.99,1.54-4.96,2.14s-4.1.91-6.4.91Z"/>
    <path class="cls-1" d="m874.98,150.72v-9.21h26.19v9.21h-26.19Zm20.14,29.18c-4.66,0-8.13-1.29-10.41-3.88s-3.41-5.91-3.41-9.97v-35.44h11.11v35.16c0,1.62.39,2.78,1.18,3.5s1.75,1.07,2.9,1.07c.54,0,1.07-.07,1.58-.21s.97-.32,1.37-.53l3.59,8.75c-1.05.52-2.28.9-3.67,1.16s-2.81.39-4.24.39Z"/>
  </g>
</svg>