<?xml version="1.0" encoding="UTF-8"?>
<svg id="_图层_1" data-name="图层 1" xmlns="http://www.w3.org/2000/svg" viewBox="0 0 1705.02 233.06">
  <defs>
    <style>
      .cls-1 {
        fill: #231815;
        stroke-width: 0px;
      }
    </style>
  </defs>
  <path class="cls-1" d="m331.64,54.68c-6.91-5.94-17.93-8.91-33.05-8.91h-93.19c-1.09,0-1.64,1.32-.86,2.09l10.12,10.12c.38.38.9.6,1.44.6h20.45c1.13,0,2.04.91,2.04,2.04v10.68c0,1.13-.91,2.04-2.04,2.04h-10.73c-1.13,0-2.04.91-2.04,2.04v8.73c0,1.13.91,2.04,2.04,2.04h10.73c1.13,0,2.04.91,2.04,2.04v70.33c0,1.09,1.31,1.63,2.09.87l11.88-11.83c.38-.38.6-.9.6-1.44l.02-57.92c0-1.13.91-2.04,2.04-2.04h10.73c1.13,0,2.04.91,2.04,2.04v85.39c0,.54.21,1.06.6,1.44l11.92,11.92c.77.77,2.09.22,2.09-.86v-67.62c0-1.13.91-2.04,2.04-2.04h11.24c11.54,0,20.7-1.73,27.45-5.18,6.75-3.47,11.57-7.97,14.42-13.55,2.86-5.56,4.3-11.52,4.3-17.89,0-10.8-3.47-19.17-10.37-25.11Zm-78.48,16.61v-10.68c0-1.13.91-2.04,2.04-2.04h10.73c1.13,0,2.04.91,2.04,2.04v10.68c0,1.13-.91,2.04-2.04,2.04h-10.73c-1.13,0-2.04-.91-2.04-2.04Zm65.68,27.28c-5.4,3.56-13.61,5.36-24.62,5.36h-9.62c-1.13,0-2.04-.91-2.04-2.04v-13.72c0-1.13.91-2.04,2.04-2.04h6.37c3.54,0,6.4-2.87,6.4-6.4h0c0-3.54-2.87-6.4-6.4-6.4h-6.32c-1.13,0-2.04-.91-2.04-2.04v-10.68c0-1.13.91-2.04,2.04-2.04h12.7c10.26,0,17.71,1.51,22.46,5.18,4.75,3.67,7.13,9.23,7.13,16.7,0,8.53-2.7,14.58-8.1,18.14Z"/>
  <g>
    <path class="cls-1" d="m374.46,81.25v-16.31h64.81v16.31h-64.81Zm23.36,77.25v-79.98h18.15v79.98h-18.15Z"/>
    <path class="cls-1" d="m448.73,158.5V60.75h17.52v36.44h3.3l-6.22,6.41c.85-3.09,2.4-5.68,4.67-7.78,2.26-2.09,4.97-3.67,8.12-4.73,3.15-1.06,6.46-1.59,9.93-1.59,5.25,0,9.59,1.1,13.04,3.3s6.03,5.17,7.74,8.92c1.71,3.74,2.57,7.9,2.57,12.47v44.31h-17.52v-40.5c0-4.57-1.13-8-3.4-10.28-2.26-2.29-5.26-3.43-8.98-3.43-2.46,0-4.69.52-6.7,1.55-2.01,1.04-3.61,2.58-4.79,4.63-1.19,2.05-1.78,4.6-1.78,7.65v40.37h-17.52Z"/>
    <path class="cls-1" d="m554.42,159.52c-7.15,0-13.37-1.49-18.66-4.47-5.29-2.98-9.38-7.11-12.28-12.38-2.9-5.27-4.35-11.29-4.35-18.06,0-7.15,1.49-13.34,4.47-18.57,2.98-5.23,6.96-9.28,11.93-12.16,4.97-2.88,10.42-4.32,16.35-4.32s10.78,1.3,15.46,3.9c4.67,2.6,8.43,6.26,11.27,10.98,2.83,4.72,4.25,10.29,4.25,16.73,0,1.48-.08,2.9-.25,4.25-.17,1.35-.42,2.94-.76,4.76h-49.64v-11.68h34.53c0-2.92-.63-5.48-1.9-7.68s-3.02-3.93-5.24-5.17c-2.22-1.25-4.79-1.87-7.71-1.87-3.55,0-6.63.86-9.24,2.57-2.6,1.71-4.61,4.1-6.03,7.14-1.42,3.05-2.13,6.58-2.13,10.6s.78,7.87,2.35,11.04c1.57,3.17,3.81,5.66,6.73,7.46s6.37,2.7,10.35,2.7c2.24,0,4.42-.26,6.54-.79,2.12-.53,4.08-1.24,5.9-2.13,1.82-.89,3.38-1.86,4.7-2.92l5.71,13.84c-2.71,1.86-6,3.37-9.87,4.51-3.87,1.14-8.03,1.71-12.47,1.71Z"/>
    <path class="cls-1" d="m624.37,81.25v-16.31h64.81v16.31h-64.81Zm23.36,77.25v-79.98h18.15v79.98h-18.15Z"/>
    <path class="cls-1" d="m719.9,159.52c-7.15,0-13.37-1.49-18.66-4.47-5.29-2.98-9.38-7.11-12.28-12.38-2.9-5.27-4.35-11.29-4.35-18.06,0-7.15,1.49-13.34,4.47-18.57,2.98-5.23,6.96-9.28,11.93-12.16,4.97-2.88,10.42-4.32,16.35-4.32s10.78,1.3,15.46,3.9c4.67,2.6,8.43,6.26,11.27,10.98,2.83,4.72,4.25,10.29,4.25,16.73,0,1.48-.08,2.9-.25,4.25-.17,1.35-.42,2.94-.76,4.76h-49.64v-11.68h34.53c0-2.92-.63-5.48-1.9-7.68s-3.02-3.93-5.24-5.17c-2.22-1.25-4.79-1.87-7.71-1.87-3.55,0-6.63.86-9.24,2.57-2.6,1.71-4.61,4.1-6.03,7.14-1.42,3.05-2.13,6.58-2.13,10.6s.78,7.87,2.35,11.04c1.57,3.17,3.81,5.66,6.73,7.46s6.37,2.7,10.35,2.7c2.24,0,4.42-.26,6.54-.79,2.12-.53,4.08-1.24,5.9-2.13,1.82-.89,3.38-1.86,4.7-2.92l5.71,13.84c-2.71,1.86-6,3.37-9.87,4.51-3.87,1.14-8.03,1.71-12.47,1.71Z"/>
    <path class="cls-1" d="m759.32,158.5v-67.98h16.82v8.51h2.48l-5.9,7.04c2.07-5.37,5-9.48,8.79-12.31,3.79-2.83,8.24-4.25,13.36-4.25,4.57,0,8.42,1.11,11.55,3.33,3.13,2.22,5.44,5.32,6.92,9.3l-3.36-3.11h4.51l-4.25,3.11c2.29-4.23,5.47-7.39,9.55-9.49,4.08-2.09,8.52-3.14,13.3-3.14,4.27,0,7.87.74,10.79,2.22,2.92,1.48,5.25,3.46,6.98,5.94,1.73,2.47,2.98,5.22,3.75,8.22s1.14,6.01,1.14,9.01v43.61h-17.58v-41.2c0-4.23-.92-7.46-2.76-9.68-1.84-2.22-4.41-3.33-7.71-3.33-2.12,0-4.04.49-5.78,1.46-1.74.97-3.11,2.42-4.13,4.35s-1.52,4.33-1.52,7.21v41.2h-17.52v-41.2c0-4.23-.93-7.46-2.79-9.68-1.86-2.22-4.44-3.33-7.74-3.33s-5.86,1.1-8.06,3.3c-2.2,2.2-3.3,5.5-3.3,9.9v41.01h-17.52Z"/>
    <path class="cls-1" d="m869.52,185.16v-94.64h16.82v7.3h2.29l-3.24,7.05v38.72l4.51,7.74h-2.86v33.83h-17.52Zm37.39-25.64c-5.71,0-10.82-1.58-15.33-4.73-4.51-3.15-8.08-7.43-10.73-12.82-2.65-5.4-3.99-11.37-4.03-17.93.04-6.52,1.33-12.4,3.87-17.65s6.03-9.39,10.47-12.44,9.54-4.57,15.3-4.57c5.25,0,10.2,1.34,14.85,4.03,4.65,2.69,8.42,6.66,11.3,11.9,2.88,5.25,4.27,11.68,4.19,19.3.08,5.71-.71,10.75-2.38,15.11-1.67,4.36-3.94,8.01-6.79,10.95-2.86,2.94-6.08,5.15-9.68,6.63-3.6,1.48-7.28,2.22-11.04,2.22Zm-3.94-14.85c3.3-.04,6.2-.92,8.7-2.63,2.5-1.71,4.45-4.09,5.87-7.14,1.42-3.05,2.1-6.58,2.06-10.6.04-4.06-.66-7.6-2.09-10.6-1.44-3-3.44-5.33-6-6.98s-5.49-2.45-8.79-2.41c-3.09-.04-5.88.74-8.38,2.35-2.5,1.61-4.47,3.9-5.94,6.89-1.46,2.98-2.21,6.57-2.25,10.76.04,4.02.79,7.55,2.25,10.6,1.46,3.05,3.45,5.43,5.97,7.14,2.52,1.71,5.38,2.59,8.6,2.63Z"/>
    <path class="cls-1" d="m964.67,159.52c-3.81,0-6.95-.81-9.43-2.44-2.47-1.63-4.34-3.84-5.59-6.63s-1.87-5.97-1.87-9.52V60.75h17.52v78.08c0,1.02.12,1.96.35,2.82.23.87.68,1.57,1.33,2.1.66.53,1.62.79,2.89.79.63,0,1.18-.05,1.65-.16.46-.11.89-.22,1.27-.35v14.16c-1.1.38-2.37.7-3.81.95-1.44.25-2.88.38-4.32.38Z"/>
    <path class="cls-1" d="m1014.18,159.52c-7.15,0-13.37-1.49-18.66-4.47-5.29-2.98-9.38-7.11-12.28-12.38-2.9-5.27-4.35-11.29-4.35-18.06,0-7.15,1.49-13.34,4.47-18.57,2.98-5.23,6.96-9.28,11.93-12.16,4.97-2.88,10.42-4.32,16.35-4.32s10.78,1.3,15.46,3.9c4.67,2.6,8.43,6.26,11.27,10.98,2.83,4.72,4.25,10.29,4.25,16.73,0,1.48-.08,2.9-.25,4.25-.17,1.35-.42,2.94-.76,4.76h-49.64v-11.68h34.53c0-2.92-.63-5.48-1.9-7.68s-3.02-3.93-5.24-5.17c-2.22-1.25-4.79-1.87-7.71-1.87-3.55,0-6.63.86-9.24,2.57-2.6,1.71-4.61,4.1-6.03,7.14-1.42,3.05-2.13,6.58-2.13,10.6s.78,7.87,2.35,11.04c1.57,3.17,3.81,5.66,6.73,7.46s6.37,2.7,10.35,2.7c2.24,0,4.42-.26,6.54-.79,2.12-.53,4.08-1.24,5.9-2.13,1.82-.89,3.38-1.86,4.7-2.92l5.71,13.84c-2.71,1.86-6,3.37-9.87,4.51-3.87,1.14-8.03,1.71-12.47,1.71Z"/>
    <path class="cls-1" d="m1090.48,158.5v-93.56h18.15v93.56h-18.15Zm14.35-32.31v-16.19h15.74c3.17,0,5.93-.62,8.28-1.87,2.35-1.25,4.17-2.97,5.46-5.17,1.29-2.2,1.94-4.72,1.94-7.55,0-4.4-1.48-7.86-4.44-10.38-2.96-2.52-6.96-3.78-12-3.78h-14.98v-16.31h16.12c6.86,0,12.77,1.23,17.74,3.68,4.97,2.46,8.79,5.93,11.46,10.41,2.67,4.49,4,9.76,4,15.81s-1.35,11.63-4.06,16.34c-2.71,4.72-6.51,8.4-11.39,11.04-4.89,2.65-10.61,3.97-17.17,3.97h-16.69Z"/>
    <path class="cls-1" d="m1164.81,158.5v-67.98h17.08v9.78h1.9l-4.32,4.63c1.06-2.33,2.63-4.68,4.73-7.04,2.1-2.37,4.69-4.36,7.78-5.97,3.09-1.61,6.69-2.41,10.79-2.41,1.73,0,3.28.13,4.63.38,1.35.25,2.33.53,2.92.82l-7.05,16.82c-.38-.21-1.09-.42-2.13-.63-1.04-.21-2.19-.32-3.46-.32-1.65,0-3.39.33-5.21.98-1.82.66-3.49,1.64-5.01,2.95-1.52,1.31-2.76,2.96-3.71,4.95-.95,1.99-1.43,4.32-1.43,6.98v36.05h-17.52Z"/>
    <path class="cls-1" d="m1244.98,159.52c-6.47,0-12.35-1.49-17.62-4.47-5.27-2.98-9.46-7.12-12.57-12.41-3.11-5.29-4.67-11.38-4.67-18.28s1.56-12.96,4.67-18.19c3.11-5.23,7.3-9.31,12.57-12.25,5.27-2.94,11.14-4.41,17.62-4.41s12.53,1.47,17.77,4.41c5.25,2.94,9.4,7.03,12.47,12.25s4.6,11.29,4.6,18.19-1.54,12.99-4.63,18.28c-3.09,5.29-7.26,9.43-12.5,12.41-5.25,2.98-11.15,4.47-17.71,4.47Zm0-15.17c3.43,0,6.5-.84,9.2-2.51,2.71-1.67,4.84-4.01,6.41-7.01,1.57-3,2.35-6.5,2.35-10.47s-.76-7.31-2.29-10.25c-1.52-2.94-3.63-5.25-6.32-6.92-2.69-1.67-5.79-2.51-9.3-2.51s-6.5.82-9.2,2.44c-2.71,1.63-4.85,3.93-6.41,6.89-1.57,2.96-2.35,6.41-2.35,10.35s.78,7.47,2.35,10.47c1.57,3,3.69,5.34,6.38,7.01,2.69,1.67,5.74,2.51,9.17,2.51Z"/>
    <path class="cls-1" d="m1286.24,186.5c-1.35,0-2.76-.09-4.22-.25-1.46-.17-2.87-.4-4.22-.7v-15.87c.97.38,2.01.64,3.11.79s2.07.22,2.92.22c2.88,0,4.96-.72,6.25-2.16s1.94-3.38,1.94-5.84v-72.17h17.52v71.79c0,4.61-.84,8.74-2.51,12.38-1.67,3.64-4.22,6.52-7.65,8.63-3.43,2.12-7.81,3.17-13.14,3.17Zm14.47-104.61c-3.09,0-5.71-1.09-7.87-3.27s-3.24-4.81-3.24-7.9,1.08-5.77,3.24-7.9c2.16-2.13,4.78-3.21,7.87-3.21s5.77,1.07,7.9,3.21c2.14,2.14,3.21,4.77,3.21,7.9s-1.07,5.72-3.21,7.9-4.77,3.27-7.9,3.27Z"/>
    <path class="cls-1" d="m1356,159.52c-7.15,0-13.37-1.49-18.66-4.47-5.29-2.98-9.38-7.11-12.28-12.38-2.9-5.27-4.35-11.29-4.35-18.06,0-7.15,1.49-13.34,4.47-18.57,2.98-5.23,6.96-9.28,11.93-12.16,4.97-2.88,10.42-4.32,16.35-4.32s10.78,1.3,15.46,3.9c4.67,2.6,8.43,6.26,11.27,10.98,2.83,4.72,4.25,10.29,4.25,16.73,0,1.48-.08,2.9-.25,4.25-.17,1.35-.42,2.94-.76,4.76h-49.64v-11.68h34.53c0-2.92-.63-5.48-1.9-7.68s-3.02-3.93-5.24-5.17c-2.22-1.25-4.79-1.87-7.71-1.87-3.55,0-6.63.86-9.24,2.57-2.6,1.71-4.61,4.1-6.03,7.14-1.42,3.05-2.13,6.58-2.13,10.6s.78,7.87,2.35,11.04c1.57,3.17,3.81,5.66,6.73,7.46s6.37,2.7,10.35,2.7c2.24,0,4.42-.26,6.54-.79,2.12-.53,4.08-1.24,5.9-2.13,1.82-.89,3.38-1.86,4.7-2.92l5.71,13.84c-2.71,1.86-6,3.37-9.87,4.51-3.87,1.14-8.03,1.71-12.47,1.71Z"/>
    <path class="cls-1" d="m1428.81,159.26c-4.99,0-9.66-.89-14-2.67s-8.15-4.25-11.43-7.43-5.85-6.89-7.71-11.14c-1.86-4.25-2.79-8.88-2.79-13.87s.92-9.53,2.76-13.74c1.84-4.21,4.39-7.89,7.65-11.04,3.26-3.15,7.01-5.6,11.27-7.33,4.25-1.73,8.79-2.6,13.62-2.6,3.89,0,7.68.56,11.36,1.68,3.68,1.12,6.94,2.68,9.78,4.67l-6.47,14.22c-1.19-1.06-2.54-1.99-4.06-2.79-1.52-.8-3.14-1.42-4.86-1.84-1.71-.42-3.48-.63-5.3-.63-3.72,0-7,.87-9.84,2.6-2.84,1.74-5.04,4.07-6.6,7.01-1.57,2.94-2.35,6.23-2.35,9.87s.8,7.01,2.41,10c1.61,2.98,3.83,5.35,6.67,7.11,2.83,1.76,6.07,2.63,9.71,2.63,2.96,0,5.78-.52,8.44-1.56,2.67-1.04,4.68-2.21,6.03-3.52l6.35,14.54c-2.46,1.61-5.47,2.98-9.04,4.13-3.58,1.14-7.44,1.71-11.58,1.71Z"/>
    <path class="cls-1" d="m1453.63,104.67v-14.22h44.69v14.22h-44.69Zm34.53,54.84c-7.74,0-13.57-2.15-17.49-6.44-3.91-4.29-5.87-9.81-5.87-16.54v-66.4h17.52v65.38c0,3.09.75,5.3,2.25,6.63,1.5,1.33,3.29,2,5.36,2,.97,0,1.91-.12,2.82-.35.91-.23,1.7-.54,2.38-.92l5.71,13.84c-1.78.93-3.74,1.63-5.87,2.1-2.14.46-4.41.7-6.82.7Z"/>
  </g>
</svg>