<?xml version="1.0" encoding="UTF-8"?>
<svg id="_图层_1" data-name="图层 1" xmlns="http://www.w3.org/2000/svg" viewBox="0 0 141.73 141.73">
  <defs>
    <style>
      .cls-1 {
        fill: #231815;
        stroke-width: 0px;
      }
    </style>
  </defs>
  <path class="cls-1" d="m129.42,9.02C122.51,3.08,111.48.11,96.36.11H3.17c-1.09,0-1.64,1.32-.86,2.09l10.12,10.12c.38.38.9.6,1.44.6h20.45c1.13,0,2.04.91,2.04,2.04v10.68c0,1.13-.91,2.04-2.04,2.04h-10.73c-1.13,0-2.04.91-2.04,2.04v8.73c0,1.13.91,2.04,2.04,2.04h10.73c1.13,0,2.04.91,2.04,2.04v70.33c0,1.09,1.31,1.63,2.09.87l11.88-11.83c.38-.38.6-.9.6-1.44l.02-57.92c0-1.13.91-2.04,2.04-2.04h10.73c1.13,0,2.04.91,2.04,2.04v85.39c0,.54.21,1.06.6,1.44l11.92,11.92c.77.77,2.09.22,2.09-.86v-67.62c0-1.13.91-2.04,2.04-2.04h11.24c11.54,0,20.7-1.73,27.45-5.18,6.75-3.47,11.57-7.97,14.42-13.55,2.86-5.56,4.3-11.52,4.3-17.89,0-10.8-3.47-19.17-10.37-25.11ZM50.93,25.63v-10.68c0-1.13.91-2.04,2.04-2.04h10.73c1.13,0,2.04.91,2.04,2.04v10.68c0,1.13-.91,2.04-2.04,2.04h-10.73c-1.13,0-2.04-.91-2.04-2.04Zm65.68,27.28c-5.4,3.56-13.61,5.36-24.62,5.36h-9.62c-1.13,0-2.04-.91-2.04-2.04v-13.72c0-1.13.91-2.04,2.04-2.04h6.37c3.54,0,6.4-2.87,6.4-6.4h0c0-3.54-2.87-6.4-6.4-6.4h-6.32c-1.13,0-2.04-.91-2.04-2.04v-10.68c0-1.13.91-2.04,2.04-2.04h12.7c10.26,0,17.71,1.51,22.46,5.18,4.75,3.67,7.13,9.23,7.13,16.7,0,8.53-2.7,14.58-8.1,18.14Z"/>
</svg>