<?xml version="1.0" encoding="UTF-8"?>
<svg id="_图层_1" data-name="图层 1" xmlns="http://www.w3.org/2000/svg" viewBox="0 0 1078.47 233.06">
  <defs>
    <style>
      .cls-1 {
        letter-spacing: -.01em;
      }

      .cls-2 {
        stroke-width: 0px;
      }

      .cls-2, .cls-3 {
        fill: #231815;
      }

      .cls-4 {
        letter-spacing: -.08em;
      }

      .cls-5 {
        letter-spacing: 0em;
      }

      .cls-6 {
        letter-spacing: 0em;
      }

      .cls-3 {
        font-family: RedditSans-ExtraBold, 'Reddit Sans';
        font-size: 72px;
        font-weight: 700;
      }

      .cls-7 {
        letter-spacing: 0em;
      }

      .cls-8 {
        letter-spacing: 0em;
      }

      .cls-9 {
        letter-spacing: -.02em;
      }
    </style>
  </defs>
  <path class="cls-2" d="m302.64,43.89c-6.91-5.94-17.93-8.91-33.05-8.91h-93.19c-1.09,0-1.64,1.32-.86,2.09l10.12,10.12c.38.38.9.6,1.44.6h20.45c1.13,0,2.04.91,2.04,2.04v10.68c0,1.13-.91,2.04-2.04,2.04h-10.73c-1.13,0-2.04.91-2.04,2.04v8.73c0,1.13.91,2.04,2.04,2.04h10.73c1.13,0,2.04.91,2.04,2.04v70.33c0,1.09,1.31,1.63,2.09.87l11.88-11.83c.38-.38.6-.9.6-1.44l.02-57.92c0-1.13.91-2.04,2.04-2.04h10.73c1.13,0,2.04.91,2.04,2.04v85.39c0,.54.21,1.06.6,1.44l11.92,11.92c.77.77,2.09.22,2.09-.86v-67.62c0-1.13.91-2.04,2.04-2.04h11.24c11.54,0,20.7-1.73,27.45-5.18,6.75-3.47,11.57-7.97,14.42-13.55,2.86-5.56,4.3-11.52,4.3-17.89,0-10.8-3.47-19.17-10.37-25.11Zm-78.48,16.61v-10.68c0-1.13.91-2.04,2.04-2.04h10.73c1.13,0,2.04.91,2.04,2.04v10.68c0,1.13-.91,2.04-2.04,2.04h-10.73c-1.13,0-2.04-.91-2.04-2.04Zm65.68,27.28c-5.4,3.56-13.61,5.36-24.62,5.36h-9.62c-1.13,0-2.04-.91-2.04-2.04v-13.72c0-1.13.91-2.04,2.04-2.04h6.37c3.54,0,6.4-2.87,6.4-6.4h0c0-3.54-2.87-6.4-6.4-6.4h-6.32c-1.13,0-2.04-.91-2.04-2.04v-10.68c0-1.13.91-2.04,2.04-2.04h12.7c10.26,0,17.71,1.51,22.46,5.18,4.75,3.67,7.13,9.23,7.13,16.7,0,8.53-2.7,14.58-8.1,18.14Z"/>
  <text class="cls-3" transform="translate(268.37 176.13)"><tspan class="cls-6" x="0" y="0">T</tspan><tspan class="cls-8" x="39.06" y="0">h</tspan><tspan x="80.3" y="0">e </tspan><tspan class="cls-4" x="140.1" y="0">T</tspan><tspan x="173.36" y="0">emp</tspan><tspan class="cls-8" x="317.95" y="0">l</tspan><tspan x="337.85" y="0">e P</tspan><tspan class="cls-9" x="440.65" y="0">r</tspan><tspan class="cls-1" x="468.81" y="0">o</tspan><tspan x="510.86" y="0">j</tspan><tspan class="cls-7" x="530.82" y="0">e</tspan><tspan class="cls-5" x="571.15" y="0">c</tspan><tspan x="605.64" y="0">t</tspan></text>
</svg>